<?xml version="1.0" encoding="UTF-8" standalone="no"?>
<!-- Created with Inkscape (http://www.inkscape.org/) -->

<svg
   width="105.83334mm"
   height="63.771732mm"
   viewBox="0 0 105.83334 63.771732"
   version="1.1"
   id="svg23756"
   inkscape:version="1.2.2 (732a01da63, 2022-12-09, custom)"
   sodipodi:docname="flag1.svg"
   xmlns:inkscape="http://www.inkscape.org/namespaces/inkscape"
   xmlns:sodipodi="http://sodipodi.sourceforge.net/DTD/sodipodi-0.dtd"
   xmlns="http://www.w3.org/2000/svg"
   xmlns:svg="http://www.w3.org/2000/svg">
  <sodipodi:namedview
     id="namedview23758"
     pagecolor="#ffffff"
     bordercolor="#000000"
     borderopacity="0.25"
     inkscape:showpageshadow="2"
     inkscape:pageopacity="0.0"
     inkscape:pagecheckerboard="0"
     inkscape:deskcolor="#d1d1d1"
     inkscape:document-units="mm"
     showgrid="false"
     inkscape:zoom="0.72515432"
     inkscape:cx="168.24005"
     inkscape:cy="330.27453"
     inkscape:window-width="1872"
     inkscape:window-height="1016"
     inkscape:window-x="0"
     inkscape:window-y="0"
     inkscape:window-maximized="1"
     inkscape:current-layer="layer1" />
  <defs
     id="defs23753" />
  <g
     inkscape:label="Layer 1"
     inkscape:groupmode="layer"
     id="layer1"
     transform="translate(-60.441198,-61.177323)">
    <g
       id="g23751"
       transform="matrix(0.70763692,0,0,0.70763692,40.186794,-155.53048)">
      <g
         id="g23689">
        <rect
           style="opacity:1;fill:#0d6f1c;fill-opacity:1;stroke:none;stroke-width:0.264583;stroke-linecap:round;stroke-linejoin:round;stroke-dasharray:none;stroke-opacity:1"
           id="rect18646"
           width="149.55881"
           height="90.119286"
           x="28.622593"
           y="306.24152" />
        <rect
           style="opacity:1;fill:#ffffff;fill-opacity:1;stroke:none;stroke-width:0.231328;stroke-linecap:round;stroke-linejoin:round;stroke-dasharray:none;stroke-opacity:1"
           id="rect18648"
           width="149.55881"
           height="68.888542"
           x="28.622593"
           y="316.85687" />
        <rect
           style="opacity:1;fill:#04236c;fill-opacity:1;stroke:none;stroke-width:0.183934;stroke-linecap:round;stroke-linejoin:round;stroke-dasharray:none;stroke-opacity:1"
           id="rect18650"
           width="149.55881"
           height="43.55262"
           x="28.622593"
           y="329.52484" />
      </g>
      <path
         id="path18566"
         style="fill:#d9aa2b;fill-opacity:1;stroke:none;stroke-width:0.400468;stroke-dasharray:none;stroke-opacity:1"
         d="m 107.21533,340.63741 c -10.670503,-0.0183 -16.252733,11.7135 -16.252733,11.7135 0,0 -0.98662,2.18954 -4.39302,3.00136 -3.532441,0.84196 -7.151573,0.41634 -8.85837,1.53738 -0.605769,0.3979 -2.526379,2.2157 -2.270146,4.02766 0.329927,2.33305 2.621176,5.58633 6.281787,4.87257 3.660561,-0.71382 6.752309,-5.28788 8.214489,-7.43572 0.40524,-0.59526 2.25808,-0.39426 3.21892,-0.24598 0.1564,-1.09723 0.46612,-2.34096 1.18701,-3.50676 0.41623,-0.67309 1.09967,-1.05214 1.09967,-1.05214 0,0 -0.35005,0.68833 -0.72037,1.28726 -0.43157,0.69793 -0.70855,1.42796 -0.89193,2.14096 0.29219,-0.65254 0.68697,-1.31157 1.28881,-1.82676 0.74653,-0.63716 1.66863,-0.61495 1.66863,-0.61495 0,0 -0.77562,0.43496 -1.37924,0.95343 -0.86718,0.74231 -1.4192,2.74287 -1.39837,2.74505 -0.40775,1.43745 0.39274,2.24327 0.39274,2.24327 l 15.448143,0.0739 c 0,0 0.0912,-0.73293 -1.46451,-1.02578 -1.55571,-0.29284 -4.75836,-0.14572 -4.75836,-0.14572 l -0.0832,-0.41755 c 2.58158,0.13756 5.33017,0.23343 7.84344,0.1974 1.1873,-0.017 2.28175,-0.0717 3.33726,-0.13797 -0.0333,-0.52931 -0.23325,-1.79499 0.24082,-3.03237 0.36054,-0.93884 1.19217,-1.38338 1.19217,-1.38338 0,0 -0.48294,0.7724 -0.77721,1.54254 -0.43516,1.1358 -0.24038,1.9189 -0.008,2.83497 0.13235,0.52291 0.0898,0.96439 0.77411,1.42058 1.1531,0.76873 3.88038,0.22014 3.88038,0.22014 -0.69228,-0.39943 -1.33183,-0.7467 -1.82986,-0.95188 0,0 -0.33401,-0.58464 -0.31471,-0.90278 0.0558,-0.92101 0.55219,-1.74172 1.22008,-2.48461 0.46192,-0.51283 1.12138,-0.7338 1.12138,-0.7338 0,0 -0.37931,0.57307 -0.79013,1.03094 -0.58971,0.6559 -0.88154,1.31256 -0.88677,2.10582 3.55218,-0.40559 5.82652,-0.77618 5.82652,-0.77618 l 3.5605,-0.65526 c 0,0 0.80795,-0.15812 1.64073,-0.47542 l 0.185,0.71727 0.38964,0.1111 c 0,0 -0.0589,-0.53535 -0.10697,-1.02629 0.86288,-0.40545 1.59527,-0.9982 1.25936,-1.81643 -0.71378,-1.7388 -2.31319,-2.94463 -4.10053,-4.17235 -1.17424,-0.80664 -2.89148,-0.27537 -4.31911,-1.02578 -1.42765,-0.75044 -1.93999,-1.86679 -2.41588,-2.41587 -2.95279,-3.40709 -5.76229,-6.50261 -13.2519,-6.51537 z m 3.96824,0.98134 c 0.20721,-4.2e-4 0.41315,0.003 0.61236,0.015 0.48287,0.0151 0.89141,0.0558 1.24385,0.21291 0.31535,0.1406 0.44649,0.32763 0.44649,0.32763 0,0 -0.18101,-0.13816 -0.48835,-0.20257 -0.30939,-0.0649 -0.76829,-0.0378 -1.21646,-0.0713 -0.51852,-0.0279 -1.08329,-0.0152 -1.59732,0.0295 -0.39005,0.0372 -0.7782,0.0412 -1.06195,0.0816 -0.28258,0.0404 -0.46974,0.10697 -0.46974,0.10697 0,0 0.15428,-0.12524 0.43564,-0.23513 0.30518,-0.11924 0.65695,-0.18524 1.07228,-0.21911 0.32836,-0.0291 0.67785,-0.0449 1.0232,-0.0455 z m -8.64753,1.02267 c 0.10242,8.1e-4 0.2021,0.007 0.29921,0.0171 0.35779,0.0392 0.57257,0.14056 0.57257,0.14056 0,0 -0.23474,-0.0366 -0.57516,-0.008 -0.42689,0.0358 -0.70774,0.12197 -1.25315,0.22634 -0.49979,0.0991 -1.01753,0.24362 -1.47743,0.416 -0.433323,0.16683 -0.656323,0.2202 -0.976163,0.38188 -0.25035,0.12664 -0.39997,0.25529 -0.39997,0.25529 0,0 0.09707,-0.17225 0.32608,-0.36587 0.24706,-0.20889 0.56684,-0.37949 0.956003,-0.52142 0.47371,-0.17757 1.00724,-0.32583 1.51929,-0.42736 0.36879,-0.0757 0.7016,-0.11656 1.00872,-0.11421 z m 10.04744,0.13229 c 0.23091,-0.002 0.46252,0.005 0.6842,0.0233 0.41702,0.0254 0.77798,0.0974 1.0697,0.25115 0.26718,0.14093 0.37879,0.30592 0.37879,0.30592 0,0 -0.16092,-0.1168 -0.42685,-0.18345 -0.33666,-0.0844 -0.58264,-0.0621 -1.04335,-0.10749 -0.42831,-0.0341 -0.89188,-0.0301 -1.32136,0.01 -0.34118,0.0333 -0.68027,0.045 -0.9307,0.0827 -0.2495,0.0375 -0.41703,0.093 -0.41703,0.093 0,0 0.13442,-0.11428 0.37983,-0.22066 0.26168,-0.11352 0.57867,-0.18952 0.94361,-0.22066 0.22151,-0.0202 0.45226,-0.0312 0.68316,-0.0331 z m 2.2903,1.10123 c 0.16532,-4.5e-4 0.33005,0.008 0.48989,0.0233 0.41023,0.0296 0.77195,0.1333 1.03508,0.31471 0.2438,0.16801 0.31884,0.3483 0.31884,0.3483 0,0 -0.13307,-0.14192 -0.37982,-0.23306 -0.2931,-0.1083 -0.57676,-0.11135 -0.99994,-0.16433 -0.40455,-0.0397 -0.83912,-0.0261 -1.22731,0.0444 -0.35024,0.072 -0.58892,0.10144 -0.83148,0.20981 -0.20637,0.0922 -0.32091,0.21446 -0.32091,0.21446 0,0 0.0552,-0.15911 0.2496,-0.32505 0.20733,-0.177 0.50638,-0.30667 0.85473,-0.36173 0.258,-0.0468 0.53576,-0.07 0.81132,-0.0708 z m -14.37276,0.12557 c 0.10242,8e-4 0.20158,0.007 0.29869,0.0176 0.35777,0.0392 0.57258,0.14005 0.57258,0.14005 0,0 -0.23474,-0.0368 -0.57516,-0.008 -0.4269,0.0358 -0.70772,0.12245 -1.253143,0.22686 -0.49978,0.099 -1.01752,0.2431 -1.47743,0.41548 -0.43329,0.16683 -0.65635,0.21969 -0.97617,0.38137 -0.25032,0.12647 -0.39946,0.2558 -0.39946,0.2558 0,0 0.09656,-0.17225 0.32556,-0.36587 0.24708,-0.20889 0.56685,-0.37948 0.95602,-0.52142 0.47373,-0.17756 1.00722,-0.32635 1.51928,-0.42788 0.36879,-0.0757 0.702093,-0.11604 1.009233,-0.11369 z m 15.43523,0.98909 c 0.2376,-8.9e-4 0.47743,0.0168 0.7059,0.0496 0.35051,0.0468 0.65158,0.15857 0.8785,0.31057 0.21346,0.14295 0.30489,0.28474 0.30489,0.28474 0,0 -0.13976,-0.0934 -0.36329,-0.16588 -0.266,-0.0863 -0.49745,-0.10785 -0.85938,-0.16536 -0.34471,-0.0503 -0.71592,-0.0602 -1.06453,-0.0269 -0.33494,0.0345 -0.53282,0.0433 -0.79013,0.0977 -0.212,0.0447 -0.35347,0.10336 -0.35347,0.10336 0,0 0.10327,-0.1144 0.30696,-0.2279 0.21434,-0.11941 0.49273,-0.21055 0.81132,-0.23874 0.13874,-0.0134 0.28068,-0.0202 0.42323,-0.0207 z m -16.699743,0.19895 c 0.10242,8.8e-4 0.20158,0.007 0.29869,0.0176 0.35774,0.0392 0.573603,0.14005 0.573603,0.14005 0,0 -0.234713,-0.0357 -0.575153,-0.007 -0.4269,0.0358 -0.70875,0.12148 -1.25419,0.22583 -0.49977,0.0991 -1.01752,0.2431 -1.47743,0.41548 -0.43333,0.16683 -0.65634,0.2202 -0.97616,0.38189 -0.25036,0.12663 -0.39946,0.25631 -0.39946,0.25631 0,0 0.09657,-0.17328 0.32556,-0.3669 0.24708,-0.20889 0.56789,-0.37846 0.95705,-0.52038 0.47374,-0.17758 1.00618,-0.32635 1.51825,-0.42788 0.36879,-0.0757 0.7021,-0.11709 1.00924,-0.11473 z m 18.373543,1.07952 c 0.19966,-0.002 0.39316,0.0287 0.57981,0.0889 0.52492,0.17165 0.78031,0.6289 0.78031,0.6289 0,0 -0.44339,-0.24197 -0.86196,-0.37517 -0.1824,-0.0589 -0.37228,-0.085 -0.56844,-0.0734 -0.39676,0.0219 -0.85008,0.11472 -0.85008,0.11472 0,0 0.3294,-0.34893 0.83457,-0.38034 0.0288,-0.002 0.0572,-0.003 0.0858,-0.003 z m -19.599823,0.19844 c 0.10242,8.9e-4 0.20158,0.007 0.29869,0.0165 0.35779,0.0393 0.57361,0.14004 0.57361,0.14004 0,0 -0.23474,-0.0357 -0.57516,-0.007 -0.4269,0.0358 -0.70875,0.12197 -1.25419,0.22634 -0.49979,0.0991 -1.01753,0.24258 -1.47743,0.41496 -0.43334,0.16683 -0.65634,0.22072 -0.97617,0.38241 -0.25035,0.12663 -0.39945,0.2558 -0.39945,0.2558 0,0 0.09706,-0.17225 0.32607,-0.36587 0.24707,-0.20887 0.56738,-0.37948 0.95653,-0.52142 0.47375,-0.17756 1.00621,-0.32635 1.51826,-0.42788 0.36879,-0.0757 0.7021,-0.11604 1.00924,-0.11369 z m -0.95963,1.28261 c 0.0353,-1.9e-4 0.07009,5e-4 0.1049,0.003 0.25386,0.0168 0.39894,0.0971 0.39894,0.0971 0,0 -0.16475,-0.017 -0.38912,0.0346 -0.22616,0.0511 -0.52178,0.18422 -0.83716,0.2713 -0.84469,0.24929 -1.86497,0.69628 -2.52698,1.16117 -0.29401,0.20647 -0.84738,0.84664 -0.84232,0.84232 0.24708,-0.20889 0.56685,-0.37949 0.95601,-0.52141 0.47373,-0.17758 1.00723,-0.32635 1.51929,-0.42788 0.49171,-0.10091 0.91848,-0.13922 1.3069,-0.0966 0.35779,0.0393 0.5736,0.14005 0.5736,0.14005 0,0 -0.23472,-0.0352 -0.57515,-0.007 -0.42689,0.0358 -0.70771,0.12145 -1.25316,0.22582 -0.49977,0.0991 -1.01752,0.2431 -1.47743,0.41548 -0.43333,0.16683 -0.65686,0.21968 -0.97668,0.38137 -0.13555,0.0686 -0.23828,0.13595 -0.30696,0.18501 -0.17148,0.22912 -0.33108,0.4601 -0.47284,0.66766 -0.23871,0.35119 -0.59376,0.60409 -0.59376,0.60409 0,0 0.13885,-0.41302 0.3731,-0.75447 0.41467,-0.60716 1.01114,-1.44771 1.61644,-1.87276 0.68199,-0.47892 1.74602,-0.94606 2.60449,-1.19941 0.28773,-0.0906 0.55018,-0.148 0.79789,-0.14934 z m 26.912553,3.21479 c 0.26188,8.7e-4 0.48145,0.161 0.57722,0.3204 0.1147,0.19088 0.0475,0.31832 0.0475,0.31832 0,0 -0.0576,-0.12284 -0.18913,-0.16691 -0.13672,-0.0457 -0.3413,-0.0176 -0.51883,-0.015 -0.23453,0.0353 -0.38098,0.15099 -0.3514,0.29197 0.0178,0.18098 0.15491,0.36972 0.28577,0.54467 0.12563,0.16817 0.21756,0.29146 0.21756,0.29146 0,0 -0.14706,-0.0193 -0.35709,-0.10956 -0.20672,-0.089 -0.48377,-0.27203 -0.58136,-0.63458 -0.10074,-0.48035 0.32267,-0.76375 0.72037,-0.82372 0.0508,-0.0118 0.10075,-0.0171 0.14935,-0.0171 z m -17.65681,1.82211 c 0.0241,-4.1e-4 0.0477,-2.9e-4 0.0718,0 l 0.82838,0.0103 c 0.71091,0.008 1.42007,0.15038 1.42007,0.15038 0,0 -0.71278,0.12485 -1.42369,0.11627 l -0.82734,-0.0103 -1.15135,-0.0129 c 0.36163,-0.16263 0.72233,-0.24708 1.0821,-0.25321 z m 20.78478,0.20723 c 0.39935,0 0.72295,0.24884 0.72295,0.55603 0,0.30719 -0.3236,0.55604 -0.72295,0.55604 -0.39933,0 -0.72347,-0.24885 -0.72347,-0.55604 0,-0.30719 0.32414,-0.55603 0.72347,-0.55603 z m -20.20445,0.47955 0.78496,0.003 c 0.67393,0.003 1.34721,0.13953 1.34721,0.13953 0,0 -0.67537,0.13031 -1.34927,0.12712 l -0.78445,-0.003 c -0.54546,-0.003 -1.08986,-0.13797 -1.08986,-0.13797 0,0 0.54593,-0.1312 1.09141,-0.12868 z m -1.99161,0.39171 0.52658,0.003 c 0.88216,0.003 1.76424,0.14108 1.76424,0.14108 0,0 -0.88312,0.12944 -1.76527,0.12557 l -0.52762,-0.003 c -0.58612,-0.003 -1.17149,-0.1385 -1.17149,-0.1385 0,0 0.58746,-0.13119 1.17356,-0.12867 z m 18.8619,0.50953 v 0.001 c 0.32537,10e-4 0.85523,0.0226 1.36736,0.12919 l 1.56838,0.3266 c 0.13841,0.0288 0.23151,0.27595 0.23151,0.27595 0,0 -0.18407,0.18845 -0.32246,0.15968 l -1.56787,-0.32659 c -0.81938,-0.17065 -1.5937,-0.55914 -1.5937,-0.55914 0,0 0.12151,-0.007 0.31678,-0.007 z m -16.98656,0.0677 0.90175,0.001 c 0.77433,4.4e-4 1.54874,0.13436 1.54874,0.13436 0,0 -0.77441,0.13279 -1.54874,0.13229 l -0.90175,-5.2e-4 c -0.62676,-4.6e-4 -1.25314,-0.13436 -1.25316,-0.13436 2e-5,0 0.6264,-0.13313 1.25316,-0.1328 z m -2.50061,0.34571 0.78495,0.003 c 0.67391,0.003 1.3472,0.14005 1.3472,0.14005 0,0 -0.67486,0.1298 -1.34875,0.1266 l -0.78495,-0.003 c -0.54543,-0.003 -1.08986,-0.13953 -1.08986,-0.13953 0,0 0.54593,-0.13016 1.09141,-0.12764 z m 2.25101,0.42582 c 0.0353,-4.4e-4 0.0706,-4.2e-4 0.10594,0 l 0.81545,0.0103 c 0.70035,0.008 1.39888,0.15038 1.39888,0.15038 0,0 -0.70111,0.12485 -1.40146,0.11627 l -0.81649,-0.01 c -0.56687,-0.007 -1.1312,-0.14779 -1.1312,-0.14779 0,0 0.49936,-0.11113 1.02888,-0.11937 z m 18.22266,0.42684 c 0.19219,-4.4e-4 0.39628,0.007 0.59893,0.0289 l 2.64118,0.2806 c -0.16112,0.11806 -0.32471,0.23239 -0.49092,0.34314 -0.83607,0.55819 -1.52646,0.88399 -2.25103,1.20147 -0.61552,0.26974 -1.32085,0.33797 -1.32085,0.33797 0,0 0.52437,-0.47528 1.14153,-0.74569 0.5493,-0.24071 1.06992,-0.4836 1.64435,-0.82476 l -1.41128,-0.15038 c -0.81059,-0.0861 -1.59732,-0.39274 -1.59732,-0.39274 0,0 0.46885,-0.0768 1.04541,-0.0786 z m -18.80402,0.28526 0.83096,0.003 c 0.71357,0.003 1.42627,0.13952 1.42627,0.13952 0,0 -0.71374,0.13032 -1.42731,0.12713 l -0.83095,-0.003 -1.15549,-0.005 c 0.38585,-0.17625 0.77148,-0.26326 1.15652,-0.26148 z m 0.0346,0.709 c 0.63692,-0.002 1.27434,0.12971 1.27434,0.12971 0,0 -0.63638,0.13578 -1.2733,0.13797 l -0.74104,0.002 c -0.51552,0.002 -1.03197,-0.12971 -1.03197,-0.12971 0,0 0.51542,-0.13526 1.03093,-0.13694 z m -17.061473,0.18242 c 0,0 -0.7207,0.54199 -1.5167,0.89193 -0.82458,0.36249 -1.645605,0.74603 -2.465999,1.18959 -0.703379,0.38035 -1.507919,0.62735 -1.507919,0.62735 0,0 0.567858,-0.62507 1.296562,-1.01906 0.834807,-0.45135 1.667926,-0.84046 2.498556,-1.20561 0.80306,-0.353 1.6955,-0.4842 1.6955,-0.4842 z m -5.830649,0.16071 c 0,0 0.240108,0.13905 0.365869,0.34778 l 0.343649,0.56999 c 0.140763,0.23345 0.167431,0.5364 0.167431,0.5364 0,0 -0.255662,-0.16452 -0.396358,-0.3979 l -0.343131,-0.57051 c -0.125796,-0.20864 -0.13746,-0.48576 -0.13746,-0.48576 z m -2.073258,0.063 c 0,0 0.293455,0.23732 0.471806,0.54209 l 0.487308,0.83251 c 0.199557,0.34101 0.284221,0.74982 0.284221,0.74982 0,0 -0.314623,-0.27392 -0.514181,-0.61495 l -0.487825,-0.8325 C 81.071638,357.4127 81.00866,357.0405 81.00866,357.0405 Z m 1.138432,0.0377 c 0,0 0.26177,0.18088 0.409277,0.42943 l 0.403076,0.67903 c 0.165148,0.27809 0.215491,0.62373 0.215491,0.62373 0,0 -0.279886,-0.20922 -0.444934,-0.48731 l -0.403076,-0.67954 c -0.147471,-0.24848 -0.179814,-0.56527 -0.179814,-0.56527 z m 22.602738,0.43563 0.58498,0.001 c 0.50213,4.5e-4 1.00355,0.13385 1.00355,0.13385 0,0 -0.50248,0.13331 -1.00459,0.1328 l -0.58394,-10e-4 c -0.40643,-4.4e-4 -0.81338,-0.13436 -0.81338,-0.13436 0,0 0.40695,-0.13279 0.81338,-0.13229 z m -1.59731,0.51883 0.58498,10e-4 c 0.50214,4.3e-4 1.00458,0.13435 1.00458,0.13435 0,0 -0.50244,0.13298 -1.00458,0.1323 h -0.58498 c -0.4064,-4.5e-4 -0.81287,-0.13488 -0.81287,-0.13488 0,0 0.40644,-0.13315 0.81287,-0.13281 z m -24.697193,0.007 c 0,0 0.313301,0.26798 0.511597,0.60358 l 0.541569,0.91725 c 0.221891,0.37552 0.328662,0.81856 0.328662,0.81856 0,0 -0.336231,-0.30764 -0.558105,-0.68316 l -0.542603,-0.91674 c -0.198313,-0.33561 -0.28112,-0.73949 -0.28112,-0.73949 z m -0.632002,0.80873 c 0,0 0.281081,0.20098 0.448551,0.47129 l 0.45682,0.73794 c 0.187381,0.30246 0.261482,0.6749 0.261482,0.6749 0,0 -0.300961,-0.23187 -0.488342,-0.53434 l -0.45682,-0.73846 c -0.167468,-0.27032 -0.221691,-0.61133 -0.221691,-0.61133 z m 7.736478,0.74673 c 0,0 0.229835,0.128 0.344682,0.32401 l 0.314192,0.53537 c 0.12849,0.21925 0.14159,0.50591 0.14159,0.50591 0,0 -0.24353,-0.15181 -0.372066,-0.37104 L 85.674525,360.054 c -0.114864,-0.19595 -0.114722,-0.45888 -0.114722,-0.45888 z m -8.330757,0.0372 c 0,0 0.246561,0.16026 0.377754,0.38706 l 0.358118,0.6196 c 0.146818,0.25374 0.178284,0.57413 0.178284,0.57413 0,0 -0.261961,-0.18654 -0.408761,-0.44029 l -0.358634,-0.6196 c -0.131177,-0.22676 -0.146761,-0.5209 -0.146761,-0.5209 z m 7.294128,0.49403 c 0.0018,10e-4 0.247052,0.15773 0.377755,0.38189 l 0.358117,0.61443 c 0.146818,0.25173 0.178284,0.57103 0.178284,0.57103 0,0 -0.261977,-0.18443 -0.40876,-0.43615 l -0.358118,-0.61444 c -0.130838,-0.22438 -0.147192,-0.51526 -0.147278,-0.51676 z m -8.122502,0.35192 c 0,0 0.229801,0.12866 0.344682,0.32453 l 0.314193,0.53536 c 0.128487,0.21926 0.141593,0.50592 0.141593,0.50592 0,0 -0.24355,-0.1518 -0.37207,-0.37104 l -0.313676,-0.53537 c -0.114864,-0.19594 -0.114722,-0.4594 -0.114722,-0.4594 z m 7.250721,0.14056 c 0,0 0.310199,0.2708 0.504878,0.60823 l 0.531751,0.92139 c 0.217821,0.37755 0.319877,0.82217 0.319877,0.82217 0,0 -0.33305,-0.31078 -0.550871,-0.68833 l -0.532267,-0.92242 c -0.194681,-0.33739 -0.273368,-0.74104 -0.273368,-0.74104 z m -2.13372,0.15193 c 0,0 -0.428381,0.47415 -0.959632,0.75085 l -1.30793,0.68162 c -0.571848,0.29782 -1.245919,0.3979 -1.245919,0.3979 0,0 0.468916,-0.49487 1.040763,-0.79271 l 1.307931,-0.6811 c 0.531249,-0.2767 1.164787,-0.35656 1.164787,-0.35656 z m -0.256315,1.52962 c 0,0 0.306862,0.28603 0.496093,0.63613 l 0.517281,0.95705 c 0.211733,0.39174 0.305925,0.84646 0.305925,0.84646 0,0 -0.32882,-0.3281 -0.540536,-0.71985 l -0.517281,-0.95653 c -0.18923,-0.35012 -0.261482,-0.76326 -0.261482,-0.76326 z m -0.884701,0.49299 c 0,0 0.294506,0.24607 0.472839,0.55811 l 0.487309,0.85214 c 0.199557,0.34915 0.283187,0.7643 0.283187,0.7643 0,0 -0.315656,-0.28286 -0.515214,-0.63201 l -0.487309,-0.85266 c -0.17835,-0.31204 -0.240812,-0.68988 -0.240812,-0.68988 z m -0.783931,0.32815 c 0,0 0.272075,0.21515 0.426847,0.49454 l 0.422196,0.76274 c 0.173171,0.3126 0.230477,0.6904 0.230477,0.6904 0,0 -0.290367,-0.24808 -0.463537,-0.56069 l -0.42323,-0.76378 c -0.154722,-0.27939 -0.192753,-0.62321 -0.192753,-0.62321 z m -0.796334,0.34158 c 0,0 0.230334,0.128 0.345198,0.32401 l 0.313676,0.53537 c 0.128486,0.21926 0.141594,0.50591 0.141594,0.50591 0,0 -0.243534,-0.1518 -0.372071,-0.37104 l -0.313676,-0.53537 c -0.114863,-0.19594 -0.114721,-0.45888 -0.114721,-0.45888 z" />
      <path
         sodipodi:type="star"
         style="opacity:1;fill:#d9aa2b;fill-opacity:1;stroke:none;stroke-width:0.264583;stroke-linecap:round;stroke-linejoin:round;stroke-dasharray:none;stroke-opacity:1"
         id="path23743"
         inkscape:flatsided="false"
         sodipodi:sides="5"
         sodipodi:cx="40.61871"
         sodipodi:cy="347.19431"
         sodipodi:r1="14.862128"
         sodipodi:r2="6.2266221"
         sodipodi:arg1="0.9551709"
         sodipodi:arg2="1.5834894"
         inkscape:rounded="0.050730708"
         inkscape:randomized="0"
         d="m 49.201131,359.32793 c -0.434227,0.30714 -8.129624,-5.90075 -8.661454,-5.9075 -0.531831,-0.007 -8.382326,6.0038 -8.808618,5.68574 -0.426291,-0.31806 3.09976,-9.55517 2.941836,-10.06305 -0.157925,-0.50789 -8.300242,-6.11679 -8.129477,-6.6205 0.170765,-0.50372 10.045381,-0.005 10.479609,-0.31181 0.434228,-0.30714 3.252494,-9.78419 3.784324,-9.77744 0.53183,0.007 3.108628,9.55229 3.534919,9.87035 0.426292,0.31807 10.310394,0.0698 10.468318,0.57771 0.157924,0.50789 -8.124143,5.9083 -8.294908,6.41202 -0.170766,0.50371 3.119679,9.82734 2.685451,10.13448 z"
         inkscape:transform-center-x="-0.03890696"
         inkscape:transform-center-y="-0.91013905"
         transform="matrix(0.66742361,0,0,0.66742361,23.702007,113.43243)" />
    </g>
  </g>
</svg>
